<svg width="16" height="16" viewBox="0 0 16 16" fill="none" xmlns="http://www.w3.org/2000/svg">
<g clip-path="url(#clip0_129_8601)">
<path d="M5.65376 10.2688H5.60157C5.4545 10.2351 5.25751 10.0641 5.25751 9.71625C5.25751 9.32616 5.51072 9.15625 5.65376 9.15625C5.79632 9.15625 6.04876 9.32435 6.04876 9.71625C6.04876 10.1027 5.79966 10.2688 5.65376 10.2688Z" stroke="currentColor"/>
<path d="M11.5912 5.1439L11.5912 5.14391L11.5944 5.14502C12.1858 5.35636 12.7565 5.62139 13.2994 5.93677C13.8728 7.10653 14.3244 8.33225 14.6471 9.5946C14.9694 10.8843 15.1589 11.8476 15.2672 12.4913C15.3214 12.8134 15.3552 13.055 15.3752 13.2171C15.3798 13.2544 15.3837 13.2874 15.3869 13.3159C14.8242 13.8806 14.1591 14.3338 13.4266 14.6508C12.7608 14.9323 12.0637 15.1319 11.3504 15.2454L10.7934 14.2893L10.5839 13.9296L10.1736 13.9999C9.45652 14.1228 8.73009 14.1831 8.00254 14.18V14.18L7.99681 14.18C7.26933 14.1839 6.5429 14.1244 5.82573 14.0023L5.41625 13.9325L5.20683 14.2913L4.65001 15.2451C3.9362 15.1302 3.23866 14.9292 2.57274 14.6461C1.84059 14.3293 1.17573 13.8765 0.613187 13.3122C0.616278 13.2858 0.620091 13.2544 0.624793 13.2176C0.645498 13.0555 0.680081 12.8138 0.734808 12.4916C0.844181 11.8477 1.03376 10.8839 1.35313 9.59387C1.67572 8.3316 2.12733 7.10596 2.70077 5.93631C3.2424 5.61981 3.81191 5.35349 4.40221 5.14071L4.40221 5.14072L4.40577 5.13941C4.99082 4.92434 5.41038 4.82092 5.67615 4.77118C5.69644 4.76738 5.71584 4.7639 5.73435 4.7607L5.76112 4.94671L5.84288 5.515L6.41422 5.45833C7.46715 5.35391 8.52784 5.35391 9.58078 5.45833L10.1521 5.515L10.2339 4.94671L10.2602 4.76401C10.5227 4.8111 10.9615 4.91496 11.5912 5.1439Z" stroke="currentColor" stroke-width="1.2"/>
<path d="M10.3462 10.2688H10.2942C10.1478 10.2352 9.95125 10.0649 9.95125 9.71625C9.95125 9.32568 10.2049 9.15625 10.3462 9.15625C10.4888 9.15625 10.7425 9.3258 10.7425 9.71625C10.7425 10.1023 10.4938 10.2688 10.3462 10.2688Z" stroke="currentColor"/>
</g>
<defs>
<clipPath id="clip0_129_8601">
<rect width="16" height="16" fill="currentColor"/>
</clipPath>
</defs>
</svg>
