<svg width="100" height="101" viewBox="0 0 100 101" fill="none" xmlns="http://www.w3.org/2000/svg">
<g clip-path="url(#clip0_835_756)">
<circle cx="47.7895" cy="50.7351" r="45.2038" fill="white"/>
<mask id="mask0_835_756" style="mask-type:alpha" maskUnits="userSpaceOnUse" x="2" y="5" width="92" height="92">
<circle cx="47.7895" cy="50.7351" r="45.6235" fill="white"/>
</mask>
<g mask="url(#mask0_835_756)">
<path d="M35.1814 74.7783C35.1814 68.8563 41.2871 64.0557 48.8188 64.0557C56.3505 64.0557 62.4562 68.8564 62.4562 74.7783V127.524H35.1814V74.7783Z" fill="#223048"/>
</g>
<rect width="2.59944" height="7.68018" transform="matrix(-0.957893 0.287124 0.287124 0.957893 22.4265 35.7256)" fill="#2A54F3"/>
<rect x="87.3923" y="61.0076" width="2.59944" height="7.68018" transform="rotate(76.0027 87.3923 61.0076)" fill="#2A54F3"/>
<ellipse cx="48.847" cy="54.3096" rx="9.25328" ry="9.74611" fill="#223048"/>
<path d="M61.0816 53.5869C61.0816 51.983 60.7657 50.3947 60.1518 48.9129C59.538 47.431 58.6384 46.0846 57.5042 44.9504C56.37 43.8162 55.0236 42.9166 53.5417 42.3028C52.0599 41.689 50.4716 41.373 48.8677 41.373C47.2637 41.373 45.6755 41.689 44.1936 42.3028C42.7118 42.9166 41.3653 43.8162 40.2312 44.9504C39.097 46.0846 38.1973 47.431 37.5835 48.9129C36.9697 50.3947 36.6538 51.983 36.6538 53.5869H38.8201C38.8201 52.2675 39.08 50.9609 39.5849 49.7419C40.0899 48.5229 40.83 47.4152 41.763 46.4822C42.696 45.5492 43.8036 44.8091 45.0226 44.3042C46.2417 43.7992 47.5482 43.5393 48.8677 43.5393C50.1872 43.5393 51.4937 43.7992 52.7127 44.3042C53.9318 44.8091 55.0394 45.5492 55.9724 46.4822C56.9054 47.4152 57.6455 48.5229 58.1505 49.7419C58.6554 50.9609 58.9153 52.2675 58.9153 53.5869H61.0816Z" fill="#223048"/>
<path d="M34.1187 51.2132C34.1187 50.3814 34.9465 49.707 35.9678 49.707H39.1889V58.502H35.9678C34.9465 58.502 34.1187 57.8277 34.1187 56.9959V51.2132Z" fill="#223048"/>
<path d="M63.5747 57.0683C63.5747 57.9001 62.7605 58.5745 61.756 58.5745L58.588 58.5745L58.588 49.7796L61.756 49.7796C62.7605 49.7796 63.5747 50.4539 63.5747 51.2857L63.5747 57.0683Z" fill="#223048"/>
<path d="M59.0697 74.3998L79.9705 67.2393C81.9112 66.5745 82.6625 64.2271 81.4686 62.5589C80.766 61.5772 79.5523 61.0998 78.3692 61.3397L50.0397 64.6378L59.0697 74.3998Z" fill="#223048"/>
<rect x="83.6399" y="60.7864" width="2.28651" height="7.4157" rx="1.14325" transform="rotate(70.7737 83.6399 60.7864)" fill="#223048"/>
<rect x="83.8989" y="58.8765" width="2.28651" height="7.4157" rx="1.14325" transform="rotate(65.2692 83.8989 58.8765)" fill="#223048"/>
<path d="M37.0764 64.9286L47.8286 63.5107L38.9669 82.4157L24.5133 71.9817C21.0924 69.5122 19.2198 65.4277 19.5812 61.2241L20.891 45.9885C21.0667 43.9446 23.1627 42.6478 25.0701 43.4029C26.1926 43.8472 26.9494 44.9093 27.0028 46.1153L27.7421 62.8018L37.0764 64.9286Z" fill="#223048"/>
<path d="M98.7699 57.801L99.4867 60.6763L87.3888 65.8793L85.6454 58.8858L98.7699 57.801Z" fill="#2A54F3"/>
<path d="M19.3779 24.3044L16.5394 25.1552L18.2384 38.2144L25.1424 36.145L19.3779 24.3044Z" fill="#2A54F3"/>
<rect x="47.9768" y="28.5903" width="1.68377" height="7.22822" fill="#223048"/>
<rect x="60.3521" y="32.3921" width="1.68377" height="7.22822" transform="rotate(35.6681 60.3521 32.3921)" fill="#223048"/>
<rect width="1.68377" height="7.22822" transform="matrix(-0.825214 0.56482 0.56482 0.825214 37.363 32.3606)" fill="#223048"/>
<rect x="23.0818" y="38.073" width="2.28651" height="8.64854" rx="1.14325" transform="rotate(15.7471 23.0818 38.073)" fill="#223048"/>
<rect x="25.1096" y="40.2563" width="2.28651" height="7.4157" rx="1.14325" transform="rotate(30.5042 25.1096 40.2563)" fill="#223048"/>
</g>
<defs>
<clipPath id="clip0_835_756">
<rect width="100" height="100" fill="white" transform="translate(0 0.306641)"/>
</clipPath>
</defs>
</svg>
