<svg width="150" height="149" viewBox="0 0 150 149" fill="none" xmlns="http://www.w3.org/2000/svg">
<circle cx="75" cy="74.2291" r="74.2291" fill="#2A54F3"/>
<rect x="52.3619" y="102.097" width="77" height="46.3611" fill="url(#paint0_linear_838_1866)"/>
<ellipse cx="90.8619" cy="102.097" rx="38.5" ry="11.75" fill="#2B48A9"/>
<path d="M101.586 55.3191C101.244 56.098 101.842 56.7141 102.184 56.9248C102.497 57.1811 103.363 57.9054 104.319 58.7527C105.515 59.8118 106.027 60.5292 106.096 61.93C106.164 63.3307 106.813 70.232 107.052 72.7602C107.292 75.2884 107.736 78.6365 107.223 79.4565C106.711 80.2764 106.574 79.0123 105.652 78.3632C104.914 77.8439 105.845 76.8713 106.403 76.45C106.267 74.2748 105.747 69.6922 104.763 68.7629C103.533 67.6013 103.738 72.0427 103.909 73.341C103.909 75.0021 104.763 75.7717 102.502 79.9171C101.651 81.4757 101.149 83.4467 101.928 85.0595C103.59 86.9272 106.883 91.2315 107.45 91.8912C109.198 93.0787 108.282 93.6348 106.916 95.4455C105.549 97.2563 104.593 97.5638 105.173 96.0605C106.403 93.8704 105.367 93.0996 105.173 92.3707L101.116 88.3617C100.911 88.783 100.687 89.8461 100.39 90.9016C98.972 94.992 98.3062 95.2406 97.8279 96.6071C97.3496 97.9737 97.7938 98.5545 95.3339 98.5545C92.8741 98.5545 93.0107 97.5638 93.7623 97.5638C95.3339 97.433 95.5744 97.0701 96.0032 96.6071L96.7949 94.6291C98.9639 89.1969 98.8529 85.6403 97.1446 82.2238C95.7781 79.4906 96.2336 71.6328 96.6322 68.0455C95.6983 69.3893 93.6462 72.2136 92.9082 72.7602C91.9858 73.4435 93.3524 73.1702 92.3616 74.3659C91.3708 75.5617 91.815 77.2358 91.1658 76.9283C90.5167 76.6208 90.79 73.9218 93.1474 70.232C95.0333 67.2802 95.5731 65.6767 95.6072 65.244V61.3492C95.6072 58.7527 97.5205 58.5477 98.2038 58.3598C98.887 58.1719 99.9803 56.4978 98.8529 56.5149C97.7254 56.532 98.4258 55.3191 97.623 52.7568C96.9807 50.7069 98.6991 50.0122 99.6387 49.9211C100.174 49.8357 101.432 50.0236 102.184 51.4585C103.123 53.2521 102.013 54.3454 101.586 55.3191Z" fill="#F5F3E7"/>
<path d="M72.862 58.8472C44.9112 54.4774 17.667 44.4561 49.2183 35.8378C72.7467 29.4109 110.059 28.1116 148.33 29.184" stroke="#F5F3E7"/>
<circle cx="75.0001" cy="59.3308" r="2.5" fill="#F5F3E7"/>
<defs>
<linearGradient id="paint0_linear_838_1866" x1="90.8619" y1="108.81" x2="90.8619" y2="141.503" gradientUnits="userSpaceOnUse">
<stop stop-color="#2B48A9"/>
<stop offset="1" stop-color="#2B48A9" stop-opacity="0"/>
</linearGradient>
</defs>
</svg>
