<svg xmlns="http://www.w3.org/2000/svg" xmlns:xlink="http://www.w3.org/1999/xlink" width="500" zoomAndPan="magnify" viewBox="0 0 375 374.999991" height="500" preserveAspectRatio="xMidYMid meet" version="1.0"><defs><clipPath id="2d0074a690"><path d="M 119 86.601562 L 268 86.601562 L 268 262 L 119 262 Z M 119 86.601562 " clip-rule="nonzero"/></clipPath><clipPath id="579313fbc3"><path d="M 67.152344 228 L 307.902344 228 L 307.902344 288.351562 L 67.152344 288.351562 Z M 67.152344 228 " clip-rule="nonzero"/></clipPath><clipPath id="a745223135"><path d="M 155 86.601562 L 235 86.601562 L 235 235 L 155 235 Z M 155 86.601562 " clip-rule="nonzero"/></clipPath></defs><g clip-path="url(#2d0074a690)"><path fill="#000000" d="M 234.886719 86.601562 C 203.886719 131.175781 200.390625 189.339844 225.855469 237.285156 C 240.761719 243.476562 254.914062 251.683594 267.925781 261.757812 C 224.277344 214.515625 211.460938 146.492188 234.886719 86.578125 C 172.132812 106.414062 126.882812 161.277344 119.378906 226.652344 C 129.1875 224.710938 139.066406 223.570312 148.898438 223.253906 C 147.539062 164.554688 181.382812 110.734375 234.886719 86.578125 Z M 234.886719 86.601562 " fill-opacity="1" fill-rule="evenodd"/></g><g clip-path="url(#579313fbc3)"><path fill="#000000" d="M 307.691406 281.082031 C 241.101562 258.066406 170.433594 249.351562 100.25 255.496094 C 88.886719 243.597656 77.914062 234.664062 67.308594 228.742188 C 150.40625 227.40625 232.675781 245.324219 307.691406 281.082031 C 245.785156 270.011719 185.652344 272.464844 127.246094 288.386719 C 120.421875 278.96875 113.746094 270.546875 107.167969 263.070312 C 174.535156 255.347656 242.753906 261.464844 307.667969 281.082031 Z M 307.691406 281.082031 " fill-opacity="1" fill-rule="evenodd"/></g><g clip-path="url(#a745223135)"><path fill="#000000" d="M 234.886719 86.601562 C 200.875 128.335938 194.394531 186.113281 218.304688 234.347656 C 209.421875 231.097656 200.292969 228.546875 191.019531 226.703125 C 175.847656 175.429688 193.179688 120.082031 234.886719 86.601562 C 192.207031 118.890625 171.9375 172.855469 182.789062 225.269531 C 173.929688 223.910156 164.945312 223.230469 155.941406 223.183594 C 152.46875 165.9375 183.542969 112.167969 234.886719 86.601562 Z M 234.886719 86.601562 " fill-opacity="1" fill-rule="evenodd"/></g></svg>