<svg width="702" height="220" viewBox="0 0 702 220" fill="none" xmlns="http://www.w3.org/2000/svg">
<path opacity="0.8" d="M620.642 133.01L151.057 133.01" stroke="url(#paint0_linear_724_1578)"/>
<g opacity="0.8" filter="url(#filter0_b_724_1578)">
<path d="M623.291 119.352C625.532 122.659 628.688 127.31 630.088 129.41C630.088 129.41 629.629 129.428 629.336 129.41C626.515 129.237 623.766 124.791 623.766 124.791C623.63 124.687 623.463 124.624 623.291 124.619L621.384 124.624C621.154 124.624 620.939 124.723 620.798 124.906C620.662 125.084 620.61 125.314 620.662 125.533L621.739 129.985L621.143 130.184C620.845 130.293 620.642 130.57 620.642 130.884C620.642 133.853 620.642 131.507 620.642 135.137C620.642 135.451 620.845 135.728 621.143 135.837L621.739 136.036L620.662 140.488C620.61 140.707 620.663 140.937 620.798 141.115C620.939 141.287 621.154 141.397 621.384 141.397L623.291 141.402C623.463 141.397 623.63 141.334 623.766 141.23C623.766 141.23 626.515 136.784 629.336 136.611C629.629 136.593 630.088 136.611 630.088 136.611C628.688 138.711 625.532 143.362 623.291 146.669C623.155 146.868 623.129 147.114 623.207 147.338C623.244 147.437 623.306 147.532 623.379 147.605C623.468 147.694 623.583 147.756 623.714 147.793L626.99 148.665C627.23 148.728 627.476 148.671 627.659 148.519L630.36 146.225L637.288 146.225C638.991 146.225 640.647 145.53 641.839 144.318C641.974 144.182 642.048 143.984 642.042 143.79C642.048 143.597 641.964 143.388 641.823 143.268C640.616 142.082 639.022 141.428 637.335 141.423L636.023 141.428L640.794 137.379L643.578 137.227C643.97 137.212 644.279 136.882 644.279 136.496L644.279 135.555L653.495 134.939C653.547 134.939 653.6 134.928 653.641 134.918L658.093 133.726C658.412 133.637 658.642 133.345 658.642 133.01C658.642 132.676 658.412 132.383 658.093 132.295L653.641 131.103C653.6 131.093 653.547 131.082 653.495 131.082L644.279 130.466L644.279 129.525C644.279 129.139 643.97 128.809 643.578 128.794L640.794 128.642L636.023 124.592L637.335 124.598C639.022 124.592 640.616 123.939 641.833 122.743C642.121 122.455 642.126 121.99 641.839 121.703C640.647 120.522 638.991 119.796 637.288 119.796L630.36 119.796L627.659 117.502C627.476 117.35 627.23 117.293 626.99 117.355L623.714 118.228C623.479 118.286 623.296 118.458 623.207 118.683C623.129 118.907 623.155 119.153 623.291 119.352Z" fill="#D5D1C8"/>
</g>
<path opacity="0.8" d="M594.097 8.66603C594.097 8.66603 493.008 -27.6831 402.619 62.0272C312.23 151.738 211.141 91.3884 211.141 91.3884C186.389 79.5666 152.423 54.3336 120.141 14.0385" stroke="url(#paint1_linear_724_1578)"/>
<circle opacity="0.8" cx="594.097" cy="8.66612" r="1.11227" transform="rotate(60 594.097 8.66612)" fill="#D5D1C8"/>
<path opacity="0.8" d="M699.501 191.027C699.501 191.027 556.053 276.664 427.787 149.362C299.521 22.0599 156.074 107.697 156.074 107.697C121.163 130.34 41.3408 163.765 1.34277 116.325" stroke="url(#paint2_linear_724_1578)"/>
<circle opacity="0.8" cx="1.57835" cy="1.57835" r="1.57835" transform="matrix(0.5 -0.866025 -0.866025 -0.5 700.079 193.182)" fill="#D5D1C8"/>
<defs>
<filter id="filter0_b_724_1578" x="617.642" y="114.33" width="44" height="37.36" filterUnits="userSpaceOnUse" color-interpolation-filters="sRGB">
<feFlood flood-opacity="0" result="BackgroundImageFix"/>
<feGaussianBlur in="BackgroundImageFix" stdDeviation="1.5"/>
<feComposite in2="SourceAlpha" operator="in" result="effect1_backgroundBlur_724_1578"/>
<feBlend mode="normal" in="SourceGraphic" in2="effect1_backgroundBlur_724_1578" result="shape"/>
</filter>
<linearGradient id="paint0_linear_724_1578" x1="631.976" y1="133.907" x2="229.026" y2="133.907" gradientUnits="userSpaceOnUse">
<stop stop-color="#D5D1C8"/>
<stop offset="1" stop-color="#D5D1C8" stop-opacity="0"/>
</linearGradient>
<linearGradient id="paint1_linear_724_1578" x1="545.164" y1="155.367" x2="160.822" y2="-58.3978" gradientUnits="userSpaceOnUse">
<stop stop-color="#D5D1C8"/>
<stop offset="1" stop-color="#D5D1C8" stop-opacity="0"/>
</linearGradient>
<linearGradient id="paint2_linear_724_1578" x1="627.421" y1="315.871" x2="71.4564" y2="-5.11525" gradientUnits="userSpaceOnUse">
<stop stop-color="#D5D1C8"/>
<stop offset="1" stop-color="#D5D1C8" stop-opacity="0"/>
</linearGradient>
</defs>
</svg>
