<svg version="1.2" xmlns="http://www.w3.org/2000/svg" viewBox="0 0 256 256" width="256" height="256">
	<defs>
		<clipPath clipPathUnits="userSpaceOnUse" id="cp1">
			<path d="m60 26.6h149v175.4h-149z"/>
		</clipPath>
		<clipPath clipPathUnits="userSpaceOnUse" id="cp2">
			<path d="m8.15 168h240.75v60.35h-240.75z"/>
		</clipPath>
		<clipPath clipPathUnits="userSpaceOnUse" id="cp3">
			<path d="m96 26.6h80v148.4h-80z"/>
		</clipPath>
		<clipPath clipPathUnits="userSpaceOnUse" id="cp4">
			<path d="m60 26.6h149v175.4h-149z"/>
		</clipPath>
		<clipPath clipPathUnits="userSpaceOnUse" id="cp5">
			<path d="m8.15 168h240.75v60.35h-240.75z"/>
		</clipPath>
		<clipPath clipPathUnits="userSpaceOnUse" id="cp6">
			<path d="m96 26.6h80v148.4h-80z"/>
		</clipPath>
	</defs>
	<g id="Clip-Path" clip-path="url(#cp1)">
		<g id="Layer">
			<path id="Layer" fill-rule="evenodd" class="s0" d="m175.9 26.6c-31 44.6-34.5 102.7-9 150.7 14.9 6.2 29 14.4 42 24.5-43.6-47.3-56.4-115.3-33-175.2-62.8 19.8-108 74.7-115.5 140.1 9.8-2 19.7-3.1 29.5-3.4-1.4-58.7 32.5-112.6 86-136.7z"/>
		</g>
	</g>
	<g id="Clip-Path" clip-path="url(#cp2)">
		<g id="Layer">
			<path id="Layer" fill-rule="evenodd" class="s0" d="m248.7 221.1c-66.6-23-137.3-31.7-207.4-25.6q-17.1-17.9-33-26.8c83.1-1.3 165.4 16.6 240.4 52.4-61.9-11.1-122-8.6-180.5 7.3-6.8-9.4-13.5-17.9-20-25.3 67.3-7.8 135.6-1.6 200.5 18z"/>
		</g>
	</g>
	<g id="Clip-Path" clip-path="url(#cp3)">
		<g id="Layer">
			<path id="Layer" fill-rule="evenodd" class="s0" d="m175.9 26.6c-34 41.7-40.5 99.5-16.6 147.7-8.9-3.2-18-5.8-27.3-7.6-15.2-51.3 2.2-106.6 43.9-140.1-42.7 32.3-63 86.3-52.1 138.7-8.9-1.4-17.9-2.1-26.9-2.1-3.4-57.3 27.6-111 79-136.6z"/>
		</g>
	</g>
	<g id="Clip-Path copy" clip-path="url(#cp4)">
		<g id="Layer">
			<path id="Layer" fill-rule="evenodd" class="s0" d="m175.9 26.6c-31 44.6-34.5 102.7-9 150.7 14.9 6.2 29 14.4 42 24.5-43.6-47.3-56.4-115.3-33-175.2-62.8 19.8-108 74.7-115.5 140.1 9.8-2 19.7-3.1 29.5-3.4-1.4-58.7 32.5-112.6 86-136.7z"/>
		</g>
	</g>
	<g id="Clip-Path copy 2" clip-path="url(#cp5)">
		<g id="Layer">
			<path id="Layer" fill-rule="evenodd" class="s0" d="m248.7 221.1c-66.6-23-137.3-31.7-207.4-25.6q-17.1-17.9-33-26.8c83.1-1.3 165.4 16.6 240.4 52.4-61.9-11.1-122-8.6-180.5 7.3-6.8-9.4-13.5-17.9-20-25.3 67.3-7.8 135.6-1.6 200.5 18z"/>
		</g>
	</g>
	<g id="Clip-Path copy 3" clip-path="url(#cp6)">
		<g id="Layer">
			<path id="Layer" fill-rule="evenodd" class="s0" d="m175.9 26.6c-34 41.7-40.5 99.5-16.6 147.7-8.9-3.2-18-5.8-27.3-7.6-15.2-51.3 2.2-106.6 43.9-140.1-42.7 32.3-63 86.3-52.1 138.7-8.9-1.4-17.9-2.1-26.9-2.1-3.4-57.3 27.6-111 79-136.6z"/>
			<path id="Layer copy" fill-rule="evenodd" class="s0" d="m175.9 26.6c-31 44.6-34.5 102.7-9 150.7 14.9 6.2 29 14.4 42 24.5-43.6-47.3-56.4-115.3-33-175.2-62.8 19.8-108 74.7-115.5 140.1 9.8-2 19.7-3.1 29.5-3.4-1.4-58.7 32.5-112.6 86-136.7z"/>
			<path id="Layer copy 2" fill-rule="evenodd" class="s0" d="m248.7 221.1c-66.6-23-137.3-31.7-207.4-25.6q-17.1-17.9-33-26.8c83.1-1.3 165.4 16.6 240.4 52.4-61.9-11.1-122-8.6-180.5 7.3-6.8-9.4-13.5-17.9-20-25.3 67.3-7.8 135.6-1.6 200.5 18z"/>
			<path id="Layer copy 3" fill-rule="evenodd" class="s0" d="m175.9 26.6c-34 41.7-40.5 99.5-16.6 147.7-8.9-3.2-18-5.8-27.3-7.6-15.2-51.3 2.2-106.6 43.9-140.1-42.7 32.3-63 86.3-52.1 138.7-8.9-1.4-17.9-2.1-26.9-2.1-3.4-57.3 27.6-111 79-136.6z"/>
			<path id="Layer copy 4" fill-rule="evenodd" class="s0" d="m175.9 26.6c-31 44.6-34.5 102.7-9 150.7 14.9 6.2 29 14.4 42 24.5-43.6-47.3-56.4-115.3-33-175.2-62.8 19.8-108 74.7-115.5 140.1 9.8-2 19.7-3.1 29.5-3.4-1.4-58.7 32.5-112.6 86-136.7z"/>
			<path id="Layer copy 5" fill-rule="evenodd" class="s0" d="m248.7 221.1c-66.6-23-137.3-31.7-207.4-25.6q-17.1-17.9-33-26.8c83.1-1.3 165.4 16.6 240.4 52.4-61.9-11.1-122-8.6-180.5 7.3-6.8-9.4-13.5-17.9-20-25.3 67.3-7.8 135.6-1.6 200.5 18z"/>
			<path id="Layer copy 6" fill-rule="evenodd" class="s0" d="m175.9 26.6c-34 41.7-40.5 99.5-16.6 147.7-8.9-3.2-18-5.8-27.3-7.6-15.2-51.3 2.2-106.6 43.9-140.1-42.7 32.3-63 86.3-52.1 138.7-8.9-1.4-17.9-2.1-26.9-2.1-3.4-57.3 27.6-111 79-136.6z"/>
		</g>
	</g>
</svg>