<svg width="206.4" height="35.712" viewBox="0 0 206.4 35.712" xmlns="http://www.w3.org/2000/svg"><g id="svgGroup" stroke-linecap="round" fill-rule="evenodd" font-size="9pt" stroke="currentColor" stroke-width="0.25mm" fill="currentColor" style="stroke:currentColor;stroke-width:0.25mm;fill:currentColor"><path d="M 154.608 34.128 L 154.608 1.824 Q 154.608 0.96 155.088 0.624 A 1.865 1.865 0 0 1 156.133 0.289 A 2.281 2.281 0 0 1 156.192 0.288 Q 156.768 0.288 157.224 0.6 A 3.417 3.417 0 0 1 157.791 1.092 A 4.243 4.243 0 0 1 158.064 1.416 Q 158.448 1.92 158.736 2.496 L 166.992 18.432 L 175.248 2.496 A 14.194 14.194 0 0 1 175.832 1.575 A 12.712 12.712 0 0 1 175.944 1.416 A 3.232 3.232 0 0 1 176.523 0.791 A 2.92 2.92 0 0 1 176.784 0.6 A 1.938 1.938 0 0 1 177.355 0.344 A 1.734 1.734 0 0 1 177.792 0.288 Q 178.464 0.288 178.92 0.624 A 1.002 1.002 0 0 1 179.255 1.073 Q 179.376 1.379 179.376 1.824 L 179.376 34.128 A 1.284 1.284 0 0 1 179.319 34.52 A 0.997 0.997 0 0 1 178.896 35.064 A 1.94 1.94 0 0 1 177.95 35.371 A 2.391 2.391 0 0 1 177.792 35.376 Q 177.216 35.376 176.712 35.064 A 1.047 1.047 0 0 1 176.352 34.707 Q 176.235 34.508 176.213 34.25 A 1.436 1.436 0 0 1 176.208 34.128 L 176.208 7.152 L 168.24 22.224 A 3.291 3.291 0 0 1 168.036 22.553 Q 167.924 22.711 167.805 22.831 A 1.501 1.501 0 0 1 167.616 22.992 A 1.439 1.439 0 0 1 167.346 23.146 A 1.016 1.016 0 0 1 166.944 23.232 Q 166.705 23.232 166.433 23.083 A 1.854 1.854 0 0 1 166.32 23.016 A 1.231 1.231 0 0 1 166.08 22.809 Q 165.881 22.592 165.702 22.235 A 4.02 4.02 0 0 1 165.696 22.224 L 157.776 7.008 L 157.776 34.128 Q 157.776 34.74 157.292 35.051 A 1.308 1.308 0 0 1 157.272 35.064 Q 156.768 35.376 156.192 35.376 A 2.119 2.119 0 0 1 155.527 35.275 A 1.877 1.877 0 0 1 155.088 35.064 A 1.005 1.005 0 0 1 154.622 34.333 A 1.434 1.434 0 0 1 154.608 34.128 Z M 44.16 35.376 L 27.072 35.376 Q 26.544 35.376 26.088 35.064 A 1.014 1.014 0 0 1 25.644 34.32 A 1.52 1.52 0 0 1 25.632 34.128 L 25.632 1.488 Q 25.632 0.912 26.088 0.6 Q 26.544 0.288 27.072 0.288 L 44.16 0.288 A 1.34 1.34 0 0 1 44.525 0.335 A 0.924 0.924 0 0 1 45.072 0.744 A 1.918 1.918 0 0 1 45.292 1.221 A 1.601 1.601 0 0 1 45.36 1.68 A 2.099 2.099 0 0 1 45.287 2.245 A 1.725 1.725 0 0 1 45.048 2.76 A 0.991 0.991 0 0 1 44.334 3.205 A 1.314 1.314 0 0 1 44.16 3.216 L 28.8 3.216 L 28.8 16.416 L 36.336 16.416 A 1.222 1.222 0 0 1 36.731 16.477 A 0.992 0.992 0 0 1 37.224 16.848 A 1.651 1.651 0 0 1 37.533 17.748 A 2.054 2.054 0 0 1 37.536 17.856 A 1.399 1.399 0 0 1 37.418 18.409 A 1.921 1.921 0 0 1 37.248 18.72 A 0.936 0.936 0 0 1 36.619 19.127 A 1.492 1.492 0 0 1 36.336 19.152 L 28.8 19.152 L 28.8 32.448 L 44.16 32.448 A 1.222 1.222 0 0 1 44.555 32.509 A 0.992 0.992 0 0 1 45.048 32.88 A 1.629 1.629 0 0 1 45.332 33.58 A 2.19 2.19 0 0 1 45.36 33.936 Q 45.36 34.464 45.072 34.92 Q 44.784 35.376 44.16 35.376 Z M 205.2 35.376 L 188.112 35.376 Q 187.584 35.376 187.128 35.064 A 1.014 1.014 0 0 1 186.684 34.32 A 1.52 1.52 0 0 1 186.672 34.128 L 186.672 1.488 Q 186.672 0.912 187.128 0.6 Q 187.584 0.288 188.112 0.288 L 205.2 0.288 A 1.34 1.34 0 0 1 205.565 0.335 A 0.924 0.924 0 0 1 206.112 0.744 A 1.918 1.918 0 0 1 206.332 1.221 A 1.601 1.601 0 0 1 206.4 1.68 A 2.099 2.099 0 0 1 206.327 2.245 A 1.725 1.725 0 0 1 206.088 2.76 A 0.991 0.991 0 0 1 205.374 3.205 A 1.314 1.314 0 0 1 205.2 3.216 L 189.84 3.216 L 189.84 16.416 L 197.376 16.416 A 1.222 1.222 0 0 1 197.771 16.477 A 0.992 0.992 0 0 1 198.264 16.848 A 1.651 1.651 0 0 1 198.573 17.748 A 2.054 2.054 0 0 1 198.576 17.856 A 1.399 1.399 0 0 1 198.458 18.409 A 1.921 1.921 0 0 1 198.288 18.72 A 0.936 0.936 0 0 1 197.659 19.127 A 1.492 1.492 0 0 1 197.376 19.152 L 189.84 19.152 L 189.84 32.448 L 205.2 32.448 A 1.222 1.222 0 0 1 205.595 32.509 A 0.992 0.992 0 0 1 206.088 32.88 A 1.629 1.629 0 0 1 206.372 33.58 A 2.19 2.19 0 0 1 206.4 33.936 Q 206.4 34.464 206.112 34.92 Q 205.824 35.376 205.2 35.376 Z M 7.402 35.545 A 16.91 16.91 0 0 0 9.84 35.712 Q 12.816 35.712 15.096 34.656 Q 17.376 33.6 18.672 31.416 A 7.817 7.817 0 0 0 19.131 30.51 Q 19.582 29.462 19.79 28.185 A 14.707 14.707 0 0 0 19.968 25.824 A 16.973 16.973 0 0 0 19.925 24.594 Q 19.854 23.612 19.663 22.776 A 8.021 8.021 0 0 0 19.104 21.12 A 9.597 9.597 0 0 0 18.684 20.329 A 7.853 7.853 0 0 0 16.824 18.168 Q 15.408 17.04 13.704 16.296 Q 12 15.552 10.32 14.952 Q 8.64 14.352 7.224 13.632 A 7.61 7.61 0 0 1 6.921 13.469 A 6.464 6.464 0 0 1 4.92 11.736 A 3.827 3.827 0 0 1 4.629 11.288 Q 4.294 10.685 4.147 9.924 A 6.774 6.774 0 0 1 4.032 8.64 Q 4.032 6.48 5.04 5.28 A 5.243 5.243 0 0 1 5.919 4.449 A 5.747 5.747 0 0 1 7.656 3.576 Q 9.264 3.072 10.992 3.072 Q 13.104 3.072 14.424 3.528 A 17.899 17.899 0 0 1 15.231 3.827 Q 15.996 4.134 16.512 4.44 Q 17.28 4.896 17.712 4.896 A 1.337 1.337 0 0 0 17.871 4.887 A 0.955 0.955 0 0 0 18.48 4.584 Q 18.768 4.272 18.936 3.864 A 2.891 2.891 0 0 0 18.973 3.77 Q 19.034 3.604 19.067 3.451 A 1.589 1.589 0 0 0 19.104 3.12 A 1.161 1.161 0 0 0 19.008 2.656 Q 18.912 2.433 18.72 2.228 A 2.392 2.392 0 0 0 18.36 1.92 Q 17.616 1.392 16.416 1.008 Q 15.216 0.624 13.8 0.408 A 20.043 20.043 0 0 0 13.535 0.369 A 18.127 18.127 0 0 0 11.04 0.192 Q 9.36 0.192 7.584 0.6 Q 5.808 1.008 4.296 1.968 A 7.03 7.03 0 0 0 3.322 2.713 A 7.745 7.745 0 0 0 1.824 4.608 A 6.139 6.139 0 0 0 1.44 5.413 Q 1.131 6.201 0.988 7.155 A 11.947 11.947 0 0 0 0.864 8.928 Q 0.864 10.264 1.118 11.345 A 6.595 6.595 0 0 0 1.752 13.032 A 8.707 8.707 0 0 0 1.865 13.231 A 7.475 7.475 0 0 0 4.056 15.624 A 13.541 13.541 0 0 0 4.234 15.746 A 14.498 14.498 0 0 0 7.176 17.256 Q 8.88 17.904 10.56 18.552 A 19.918 19.918 0 0 1 11.079 18.76 A 17.688 17.688 0 0 1 13.656 20.088 Q 15.072 20.976 15.936 22.392 A 4.99 4.99 0 0 1 16.322 23.176 Q 16.8 24.399 16.8 26.112 Q 16.8 28.32 15.96 29.784 Q 15.12 31.248 13.512 31.992 A 6.775 6.775 0 0 1 13.216 32.12 Q 11.7 32.736 9.648 32.736 Q 8.273 32.736 7.219 32.513 A 6.449 6.449 0 0 1 6 32.136 A 11.114 11.114 0 0 1 5.706 32.004 Q 5.142 31.742 4.677 31.444 A 6.133 6.133 0 0 1 3.768 30.744 A 25.087 25.087 0 0 1 3.276 30.268 Q 2.771 29.765 2.424 29.352 Q 2.133 29.005 1.849 28.859 A 0.886 0.886 0 0 0 1.44 28.752 Q 1.229 28.752 1.017 28.856 A 1.433 1.433 0 0 0 0.768 29.016 A 1.831 1.831 0 0 0 0.497 29.28 A 2.197 2.197 0 0 0 0.216 29.712 A 2.666 2.666 0 0 0 0.197 29.75 Q 0.11 29.933 0.061 30.107 A 1.56 1.56 0 0 0 0 30.528 A 1.481 1.481 0 0 0 0.049 30.895 Q 0.24 31.642 1.176 32.616 A 6.867 6.867 0 0 0 1.829 33.211 Q 2.389 33.66 3.106 34.066 A 14.235 14.235 0 0 0 4.56 34.776 Q 5.837 35.317 7.402 35.545 Z M 119.424 33.792 L 111.984 19.392 L 105.888 19.392 L 105.888 34.128 Q 105.888 34.74 105.404 35.051 A 1.308 1.308 0 0 1 105.384 35.064 Q 104.88 35.376 104.304 35.376 A 2.119 2.119 0 0 1 103.639 35.275 A 1.877 1.877 0 0 1 103.2 35.064 A 1.005 1.005 0 0 1 102.734 34.333 A 1.434 1.434 0 0 1 102.72 34.128 L 102.72 1.44 A 1.121 1.121 0 0 1 102.794 1.027 A 1.024 1.024 0 0 1 103.056 0.648 A 1.33 1.33 0 0 1 103.653 0.332 A 1.78 1.78 0 0 1 103.92 0.288 L 112.416 0.288 Q 115.248 0.288 117.6 1.152 Q 119.952 2.016 121.368 4.056 A 7.095 7.095 0 0 1 122.323 6.106 Q 122.597 7.031 122.708 8.14 A 16.115 16.115 0 0 1 122.784 9.744 Q 122.784 12.043 122.197 13.712 A 7.466 7.466 0 0 1 121.8 14.64 A 7.599 7.599 0 0 1 120.344 16.64 A 6.842 6.842 0 0 1 119.112 17.592 A 10.972 10.972 0 0 1 115.818 18.902 A 12.659 12.659 0 0 1 115.296 19.008 L 122.688 33.216 A 0.673 0.673 0 0 1 122.785 33.337 A 0.492 0.492 0 0 1 122.856 33.528 A 2.468 2.468 0 0 1 122.875 33.709 A 1.928 1.928 0 0 1 122.88 33.84 Q 122.88 34.224 122.616 34.608 Q 122.352 34.992 121.92 35.208 Q 121.488 35.424 121.056 35.424 Q 120.528 35.424 120.096 34.896 A 4.614 4.614 0 0 1 119.574 34.112 A 4.073 4.073 0 0 1 119.424 33.792 Z M 47.376 33.696 L 57.408 1.104 A 1.455 1.455 0 0 1 57.716 0.571 A 1.413 1.413 0 0 1 58.128 0.264 Q 58.656 0 59.28 0 Q 59.952 0 60.504 0.288 A 1.561 1.561 0 0 1 60.871 0.548 A 1.201 1.201 0 0 1 61.2 1.104 L 71.184 33.696 A 0.907 0.907 0 0 1 71.232 33.98 A 0.873 0.873 0 0 1 71.232 33.984 A 0.974 0.974 0 0 1 71.019 34.591 A 1.293 1.293 0 0 1 70.944 34.68 Q 70.656 34.992 70.224 35.184 Q 69.792 35.376 69.312 35.376 Q 68.928 35.376 68.592 35.184 A 0.859 0.859 0 0 1 68.207 34.72 A 1.218 1.218 0 0 1 68.16 34.56 L 65.904 27.168 L 52.656 27.168 L 50.448 34.56 A 1.313 1.313 0 0 1 50.303 34.866 A 0.975 0.975 0 0 1 49.968 35.184 Q 49.637 35.373 49.165 35.376 A 2.378 2.378 0 0 1 49.152 35.376 Q 48.768 35.376 48.336 35.208 A 1.999 1.999 0 0 1 47.842 34.934 A 1.777 1.777 0 0 1 47.616 34.728 Q 47.484 34.585 47.413 34.428 A 0.947 0.947 0 0 1 47.328 34.032 A 1.304 1.304 0 0 1 47.337 33.873 Q 47.348 33.789 47.369 33.717 A 0.776 0.776 0 0 1 47.376 33.696 Z M 85.776 35.376 L 77.28 35.376 A 1.907 1.907 0 0 1 76.809 35.321 A 1.421 1.421 0 0 1 76.248 35.04 Q 75.84 34.704 75.84 34.176 L 75.84 1.44 A 0.997 0.997 0 0 1 76.164 0.699 A 1.409 1.409 0 0 1 76.248 0.624 A 1.45 1.45 0 0 1 76.929 0.318 A 2.002 2.002 0 0 1 77.28 0.288 L 85.776 0.288 A 13.7 13.7 0 0 1 88.785 0.606 A 11.327 11.327 0 0 1 90.888 1.296 Q 93.168 2.304 94.488 4.56 Q 95.53 6.34 95.749 9.017 A 18.292 18.292 0 0 1 95.808 10.512 L 95.808 25.104 A 17.286 17.286 0 0 1 95.652 27.502 Q 95.48 28.729 95.118 29.741 A 8.086 8.086 0 0 1 94.488 31.104 Q 93.168 33.36 90.888 34.368 A 11.805 11.805 0 0 1 87.409 35.287 A 14.645 14.645 0 0 1 85.776 35.376 Z M 127.728 25.392 L 127.728 10.512 Q 127.728 6.816 129.048 4.56 A 8.167 8.167 0 0 1 130.937 2.321 A 7.534 7.534 0 0 1 132.6 1.296 Q 134.832 0.288 137.664 0.288 A 13.703 13.703 0 0 1 140.51 0.573 A 11.141 11.141 0 0 1 142.752 1.296 A 7.821 7.821 0 0 1 146.224 4.351 A 9.544 9.544 0 0 1 146.352 4.56 A 8.658 8.658 0 0 1 147.271 6.81 Q 147.55 7.875 147.646 9.137 A 18.153 18.153 0 0 1 147.696 10.512 L 147.696 25.392 A 16.983 16.983 0 0 1 147.537 27.79 Q 147.234 29.912 146.352 31.392 A 8.22 8.22 0 0 1 144.346 33.701 A 7.677 7.677 0 0 1 142.752 34.656 A 11.564 11.564 0 0 1 139.378 35.566 A 14.525 14.525 0 0 1 137.664 35.664 Q 134.88 35.664 132.624 34.656 A 7.709 7.709 0 0 1 129.131 31.532 A 9.4 9.4 0 0 1 129.048 31.392 Q 127.728 29.136 127.728 25.392 Z M 79.008 3.216 L 79.008 32.448 L 85.776 32.448 Q 88.561 32.448 90.302 31.116 A 5.703 5.703 0 0 0 90.816 30.672 A 5.409 5.409 0 0 0 92.11 28.606 Q 92.64 27.148 92.64 25.104 L 92.64 10.512 A 12.179 12.179 0 0 0 92.481 8.475 Q 92.102 6.244 90.816 4.992 Q 89.038 3.261 85.937 3.217 A 11.459 11.459 0 0 0 85.776 3.216 L 79.008 3.216 Z M 144.528 25.392 L 144.528 10.512 A 12.179 12.179 0 0 0 144.369 8.475 Q 143.99 6.244 142.704 4.992 Q 140.926 3.261 137.825 3.217 A 11.459 11.459 0 0 0 137.664 3.216 A 9.344 9.344 0 0 0 135.644 3.421 Q 133.844 3.82 132.672 4.992 A 5.421 5.421 0 0 0 131.427 7.006 Q 131.114 7.866 130.985 8.931 A 13.218 13.218 0 0 0 130.896 10.512 L 130.896 25.392 A 12.843 12.843 0 0 0 131.044 27.416 Q 131.214 28.476 131.578 29.317 A 5.231 5.231 0 0 0 132.672 30.96 Q 134.361 32.649 137.353 32.732 A 11.272 11.272 0 0 0 137.664 32.736 Q 140.449 32.736 142.19 31.404 A 5.703 5.703 0 0 0 142.704 30.96 A 5.409 5.409 0 0 0 143.998 28.894 Q 144.528 27.436 144.528 25.392 Z M 59.28 5.088 L 53.424 24.432 L 65.088 24.432 L 59.28 5.088 Z M 105.888 3.216 L 105.888 16.656 L 112.416 16.656 A 10.812 10.812 0 0 0 114.634 16.441 Q 116.371 16.077 117.624 15.096 A 4.745 4.745 0 0 0 119.149 12.932 Q 119.441 12.134 119.55 11.144 A 11.432 11.432 0 0 0 119.616 9.888 A 10.226 10.226 0 0 0 119.458 8.026 Q 119.056 5.856 117.624 4.752 A 7.057 7.057 0 0 0 114.996 3.51 Q 113.974 3.254 112.775 3.221 A 13.042 13.042 0 0 0 112.416 3.216 L 105.888 3.216 Z" vector-effect="non-scaling-stroke"/></g></svg>